<svg width="20" height="12" viewBox="0 0 20 12" fill="none" xmlns="http://www.w3.org/2000/svg">
<path d="M10.6473 9.51724C10.6473 9.97241 10.2716 10.3448 9.81252 10.3448L1.63166 10.3448C1.17253 10.3448 0.796875 9.97241 0.796875 9.51724C0.796875 9.06207 1.17253 8.68966 1.63166 8.68966L9.81252 8.68966C10.2716 8.68966 10.6473 9.06207 10.6473 9.51724ZM19.1621 8.68966L18.4525 8.68966C17.9934 8.68966 17.6177 9.06207 17.6177 9.51724C17.6177 9.97241 17.9934 10.3448 18.4525 10.3448L19.1621 10.3448C19.6212 10.3448 19.9969 9.97241 19.9969 9.51724C19.9969 9.06207 19.6212 8.68966 19.1621 8.68966ZM3.78123 2.46205C3.78123 1.09653 4.90819 1.79711e-07 6.28558 2.39919e-07C7.66297 3.00127e-07 8.78993 1.11722 8.78993 2.46205C8.78993 3.80688 7.66297 4.92415 6.28558 4.92415C4.90819 4.92415 3.78123 3.82757 3.78123 2.46205ZM5.4508 2.46205C5.4508 2.91722 5.82645 3.26898 6.28558 3.26898C6.74471 3.26898 7.12036 2.89653 7.12036 2.46205C7.12036 2.02757 6.74471 1.65517 6.28558 1.65517C5.82645 1.65517 5.4508 2.02757 5.4508 2.46205ZM16.5325 9.53795C16.5325 10.9035 15.4056 12 14.0282 12C12.6508 12 11.5238 10.8828 11.5238 9.53795C11.5238 8.19312 12.6508 7.07585 14.0282 7.07585C15.4056 7.05516 16.5325 8.17243 16.5325 9.53795ZM14.863 9.53795C14.863 9.08278 14.4873 8.73103 14.0282 8.73103C13.5691 8.73103 13.1934 9.10347 13.1934 9.53795C13.1934 9.97243 13.5691 10.3448 14.0282 10.3448C14.4873 10.3448 14.863 9.97243 14.863 9.53795ZM1.63166 3.31034L2.11167 3.31034C2.5708 3.31035 2.94645 2.93793 2.94645 2.48276C2.94645 2.02759 2.5708 1.65517 2.11167 1.65517L1.63166 1.65517C1.17253 1.65517 0.796875 2.02759 0.796875 2.48276C0.796875 2.93793 1.17253 3.31034 1.63166 3.31034ZM19.9969 2.48276C19.9969 2.02759 19.6212 1.65517 19.1621 1.65517L10.6682 1.65517C10.2091 1.65517 9.83341 2.02759 9.83341 2.48276C9.83341 2.93793 10.2091 3.31035 10.6682 3.31035L19.1621 3.31035C19.6212 3.31035 19.9969 2.93793 19.9969 2.48276Z" fill="#8A8F99"/>
</svg>
