<svg width="26" height="37" viewBox="0 0 26 37" fill="none" xmlns="http://www.w3.org/2000/svg">
<path d="M16 26C10.5 26 6 21.5 6 16V10C6 4.5 10.5 0 16 0C21.5 0 26 4.5 26 10V16C26 21.5 21.5 26 16 26Z" fill="url(#paint0_linear_1368_268)"/>
<path d="M18.1 34.7984H12V25.7984C17.6 25.2984 22 20.5984 22 14.8984C22 14.7984 22 14.6984 22 14.6984L20 5.69844C19.9 5.19844 19.5 4.89844 19 4.89844H3C2.5 4.89844 2.1 5.19844 2 5.69844L0 14.6984C0 14.7984 0 14.8984 0 14.8984C0 20.5984 4.4 25.2984 10 25.7984V34.7984H4.10001C3.60001 34.7984 3.10001 35.2984 3.10001 35.7984C3.10001 36.2984 3.60001 36.7984 4.10001 36.7984H18.1C18.6 36.7984 19.1 36.2984 19.1 35.7984C19.1 35.2984 18.7 34.7984 18.1 34.7984ZM2 14.8984L3.8 6.79844H18.2L19.8 13.7984H5C4.5 13.7984 4 14.2984 4 14.7984C4 15.2984 4.5 15.7984 5 15.7984H20C19.5 20.2984 15.7 23.7984 11.1 23.7984C6.10001 23.7984 2.1 19.7984 2 14.8984Z" fill="#5D4B65"/>
<defs>
<linearGradient id="paint0_linear_1368_268" x1="6" y1="13" x2="26" y2="13" gradientUnits="userSpaceOnUse">
<stop stop-color="#38BDF8"/>
<stop offset="1" stop-color="#60A5FA"/>
</linearGradient>
</defs>
</svg>
