<svg width="20" height="5" viewBox="0 0 20 5" fill="none" xmlns="http://www.w3.org/2000/svg">
<path d="M2 0.757576C3.10457 0.757576 4 1.70727 4 2.87879C4 4.0503 3.10457 5 2 5C0.895431 5 3.91405e-08 4.0503 8.74228e-08 2.87879C1.35705e-07 1.70727 0.895431 0.757576 2 0.757576Z" fill="url(#paint0_linear_1315_240)"/>
<path d="M10 0.757576C11.1046 0.757576 12 1.70728 12 2.87879C12 4.0503 11.1046 5 10 5C8.89543 5 8 4.0503 8 2.87879C8 1.70728 8.89543 0.757576 10 0.757576Z" fill="url(#paint1_linear_1315_240)"/>
<path d="M18 0.757576C19.1046 0.757576 20 1.70728 20 2.87879C20 4.0503 19.1046 5 18 5C16.8954 5 16 4.0503 16 2.87879C16 1.70728 16.8954 0.757576 18 0.757576Z" fill="url(#paint2_linear_1315_240)"/>
<defs>
<linearGradient id="paint0_linear_1315_240" x1="4.92352e-07" y1="2.87879" x2="20" y2="2.87878" gradientUnits="userSpaceOnUse">
<stop stop-color="#38BDF8"/>
<stop offset="1" stop-color="#60A5FA"/>
</linearGradient>
<linearGradient id="paint1_linear_1315_240" x1="4.92352e-07" y1="2.87879" x2="20" y2="2.87878" gradientUnits="userSpaceOnUse">
<stop stop-color="#38BDF8"/>
<stop offset="1" stop-color="#60A5FA"/>
</linearGradient>
<linearGradient id="paint2_linear_1315_240" x1="4.92352e-07" y1="2.87879" x2="20" y2="2.87878" gradientUnits="userSpaceOnUse">
<stop stop-color="#38BDF8"/>
<stop offset="1" stop-color="#60A5FA"/>
</linearGradient>
</defs>
</svg>
