<svg width="14" height="12" viewBox="0 0 14 12" fill="none" xmlns="http://www.w3.org/2000/svg">
<path d="M7.375 6.35693C8.875 6.92836 9.625 8.28551 9.625 9.21408C9.625 10.7855 8.35 10.6426 5.5 10.6426C3.025 10.6426 1.375 10.9284 1.375 9.21408C1.375 8.28551 2.05 6.92836 3.625 6.35693M8.5 1.35693C9.55 1.35693 10.375 2.14265 10.375 3.14265C10.375 4.14265 9.55 4.92836 8.5 4.92836M10.375 6.35693C11.875 6.92836 12.625 8.2855 12.625 9.21408C12.625 10.1426 12.175 10.4284 11.275 10.5712M7.375 3.14265C7.375 4.12887 6.53553 4.92836 5.5 4.92836C4.46447 4.92836 3.625 4.12887 3.625 3.14265C3.625 2.15643 4.46447 1.35693 5.5 1.35693C6.53553 1.35693 7.375 2.15643 7.375 3.14265Z" stroke="white" stroke-miterlimit="10" stroke-linecap="round" stroke-linejoin="round"/>
</svg>
