<svg width="16" height="15" viewBox="0 0 16 15" fill="none" xmlns="http://www.w3.org/2000/svg">
<path d="M9.32167 1.52531L10.1882 3.14084C10.549 3.81332 11.1971 4.28421 11.9481 4.41948L13.7524 4.74445C14.9302 4.95658 15.3975 6.39481 14.5693 7.25871L13.3007 8.58214C12.7726 9.13302 12.525 9.89494 12.6284 10.651L12.8769 12.4674C13.0391 13.653 11.8157 14.5419 10.7382 14.0213L9.08752 13.2237C8.4004 12.8916 7.59928 12.8916 6.91216 13.2237L5.26148 14.0213C4.18394 14.5419 2.96051 13.653 3.12271 12.4674L3.3712 10.651C3.47463 9.89494 3.22707 9.13302 2.69897 8.58214L1.43031 7.25871C0.602158 6.39481 1.06947 4.95658 2.24725 4.74445L4.0515 4.41948C4.80254 4.28421 5.45067 3.81331 5.8114 3.14084L6.67801 1.52531C7.24372 0.470729 8.75596 0.470729 9.32167 1.52531Z" fill="white" stroke="#FFCF23"/>
</svg>
