<svg width="16" height="12" viewBox="0 0 16 12" fill="none" xmlns="http://www.w3.org/2000/svg">
<path d="M6.95156 6.35937C8.35156 6.9308 9.05156 8.28795 9.05156 9.21652C9.05156 10.7879 7.86156 10.6451 5.20156 10.6451C2.89156 10.6451 1.35156 10.9308 1.35156 9.21652C1.35156 8.28795 1.98156 6.9308 3.45156 6.35937M8.00156 1.35938C8.98156 1.35938 9.75156 2.14509 9.75156 3.14509C9.75156 4.14509 8.98156 4.9308 8.00156 4.9308M9.75156 6.35937C11.1516 6.9308 11.8516 8.28795 11.8516 9.21652C11.8516 10.1451 11.4316 10.4308 10.5916 10.5737M10.8016 1.35938C11.7816 1.35938 12.5516 2.14509 12.5516 3.14509C12.5516 4.14509 11.7816 4.9308 10.8016 4.9308M12.5516 6.35937C13.9516 6.9308 14.6516 8.28795 14.6516 9.21652C14.6516 10.1451 14.2316 10.4308 13.3916 10.5737M6.95156 3.14509C6.95156 4.13131 6.16806 4.9308 5.20156 4.9308C4.23506 4.9308 3.45156 4.13131 3.45156 3.14509C3.45156 2.15887 4.23506 1.35938 5.20156 1.35938C6.16806 1.35938 6.95156 2.15887 6.95156 3.14509Z" stroke="url(#paint0_linear_1319_244)" stroke-miterlimit="10" stroke-linecap="round" stroke-linejoin="round"/>
<defs>
<linearGradient id="paint0_linear_1319_244" x1="1.35156" y1="6.01116" x2="14.6516" y2="6.01116" gradientUnits="userSpaceOnUse">
<stop stop-color="#38BDF8"/>
<stop offset="1" stop-color="#60A5FA"/>
</linearGradient>
</defs>
</svg>
