<svg width="5" height="20" viewBox="0 0 5 20" fill="none" xmlns="http://www.w3.org/2000/svg">
<path d="M0.757576 18C0.757576 16.8954 1.70727 16 2.87879 16C4.0503 16 5 16.8954 5 18C5 19.1046 4.0503 20 2.87879 20C1.70727 20 0.757576 19.1046 0.757576 18Z" fill="url(#paint0_linear_1315_240)"/>
<path d="M0.757576 10C0.757576 8.89543 1.70728 8 2.87879 8C4.0503 8 5 8.89543 5 10C5 11.1046 4.0503 12 2.87879 12C1.70728 12 0.757576 11.1046 0.757576 10Z" fill="url(#paint1_linear_1315_240)"/>
<path d="M0.757576 2C0.757576 0.89543 1.70728 -1.35705e-07 2.87879 -8.74228e-08C4.0503 -3.91405e-08 5 0.895431 5 2C5 3.10457 4.0503 4 2.87879 4C1.70728 4 0.757576 3.10457 0.757576 2Z" fill="url(#paint2_linear_1315_240)"/>
<defs>
<linearGradient id="paint0_linear_1315_240" x1="2.87879" y1="20" x2="2.87878" y2="-4.92348e-07" gradientUnits="userSpaceOnUse">
<stop stop-color="#38BDF8"/>
<stop offset="1" stop-color="#60A5FA"/>
</linearGradient>
<linearGradient id="paint1_linear_1315_240" x1="2.87879" y1="20" x2="2.87878" y2="-4.92348e-07" gradientUnits="userSpaceOnUse">
<stop stop-color="#38BDF8"/>
<stop offset="1" stop-color="#60A5FA"/>
</linearGradient>
<linearGradient id="paint2_linear_1315_240" x1="2.87879" y1="20" x2="2.87878" y2="-4.92348e-07" gradientUnits="userSpaceOnUse">
<stop stop-color="#38BDF8"/>
<stop offset="1" stop-color="#60A5FA"/>
</linearGradient>
</defs>
</svg>
