<svg width="47" height="30" viewBox="0 0 47 30" fill="none" xmlns="http://www.w3.org/2000/svg">
<path d="M7.30629 21.8C7.30629 21.66 7.31629 21.2 7.33629 20.42C7.41629 18.6 7.45629 16.32 7.45629 13.58L4.15629 7.79C3.77629 7.13 3.37629 6.45 2.95629 5.75L1.96629 4.1C1.30629 2.98 0.916289 2.28 0.796289 2C0.696289 1.72 0.646289 1.46 0.646289 1.22C0.646289 0.979999 0.736289 0.749999 0.916289 0.53C1.09629 0.309999 1.33629 0.199998 1.63629 0.199998C1.93629 0.199998 2.18629 0.279999 2.38629 0.439999C2.58629 0.599999 2.80629 0.879999 3.04629 1.28C3.28629 1.68 3.51629 2.1 3.73629 2.54C5.23629 5.62 6.86629 8.53 8.62629 11.27C10.4663 8.37 11.9963 5.66 13.2163 3.14C13.3563 2.84 13.5063 2.54 13.6663 2.24C13.8463 1.92 13.9763 1.67 14.0563 1.49C14.1563 1.31 14.2563 1.14 14.3563 0.979999C14.4763 0.799999 14.5663 0.669999 14.6263 0.589999C14.7063 0.509999 14.7963 0.439999 14.8963 0.38C15.0363 0.259999 15.2263 0.199998 15.4663 0.199998C15.7263 0.199998 15.9363 0.289999 16.0963 0.469999C16.2763 0.649999 16.3663 0.859999 16.3663 1.1C16.3663 1.32 16.3363 1.54 16.2763 1.76C16.2163 1.96 16.0863 2.25 15.8863 2.63C15.6863 3.01 15.4863 3.37 15.2863 3.71C15.1063 4.03 14.7863 4.57 14.3263 5.33C13.8863 6.09 13.4863 6.79 13.1263 7.43L9.61629 13.58C9.61629 16.36 9.63629 18.4 9.67629 19.7C9.73629 21 9.76629 21.7 9.76629 21.8C9.76629 22.8 9.35629 23.3 8.53629 23.3C7.71629 23.3 7.30629 22.8 7.30629 21.8ZM22.6225 14.93C23.9825 14.93 25.0625 14.7 25.8625 14.24C26.6825 13.78 27.0925 13.16 27.0925 12.38C27.0925 11.6 26.8225 10.93 26.2825 10.37C25.7625 9.79 25.0125 9.5 24.0325 9.5C22.7125 9.5 21.6025 10 20.7025 11C19.8025 11.98 19.2225 13.13 18.9625 14.45C20.0625 14.77 21.2825 14.93 22.6225 14.93ZM23.7625 7.55C25.3825 7.55 26.6925 8 27.6925 8.9C28.7125 9.8 29.2225 10.97 29.2225 12.41C29.2225 13.85 28.5925 14.95 27.3325 15.71C26.0925 16.45 24.5625 16.82 22.7425 16.82C21.7025 16.82 20.4325 16.67 18.9325 16.37C19.0525 17.77 19.5725 18.98 20.4925 20C21.4325 21 22.4725 21.5 23.6125 21.5C24.2925 21.5 24.9225 21.41 25.5025 21.23C26.0825 21.03 26.5225 20.82 26.8225 20.6C27.6225 19.98 28.1425 19.67 28.3825 19.67C28.6425 19.67 28.8425 19.75 28.9825 19.91C29.1425 20.05 29.2225 20.23 29.2225 20.45C29.2225 21.01 28.6425 21.65 27.4825 22.37C26.3425 23.09 25.1025 23.45 23.7625 23.45C21.6825 23.45 20.0325 22.72 18.8125 21.26C17.5925 19.8 16.9325 18.04 16.8325 15.98C15.7725 15.66 15.2425 15.14 15.2425 14.42C15.2425 14.12 15.3225 13.89 15.4825 13.73C15.6625 13.55 15.8725 13.46 16.1125 13.46C16.3525 13.46 16.6525 13.55 17.0125 13.73C17.4525 11.93 18.2825 10.45 19.5025 9.29C20.7425 8.13 22.1625 7.55 23.7625 7.55ZM39.3343 21.35C40.6143 21.35 41.7343 20.76 42.6943 19.58C43.6743 18.4 44.1643 17.02 44.1643 15.44C44.1643 13.84 43.8143 12.48 43.1143 11.36C42.4143 10.22 41.4643 9.65 40.2643 9.65C38.1643 9.65 36.4343 11.38 35.0743 14.84V19.61C36.2743 20.77 37.6943 21.35 39.3343 21.35ZM33.2143 17.3L33.2443 16.16V15.68C33.2443 14.84 33.1543 13.61 32.9743 11.99C32.7943 10.37 32.7043 9.39 32.7043 9.05C32.7043 8.69 32.8043 8.38 33.0043 8.12C33.2243 7.84 33.5143 7.7 33.8743 7.7C34.2343 7.7 34.5143 7.84 34.7143 8.12C34.9343 8.38 35.0443 8.68 35.0443 9.02C35.0443 9.36 35.0343 9.79 35.0143 10.31C35.0143 10.81 35.0143 11.23 35.0143 11.57C35.6743 10.35 36.4143 9.4 37.2343 8.72C38.0543 8.04 39.1143 7.7 40.4143 7.7C41.7143 7.7 42.8343 8.12 43.7743 8.96C44.7143 9.8 45.3843 10.77 45.7843 11.87C46.1843 12.97 46.3843 14.07 46.3843 15.17C46.3843 17.35 45.7243 19.25 44.4043 20.87C43.0843 22.49 41.3943 23.3 39.3343 23.3C37.8343 23.3 36.4143 22.81 35.0743 21.83C35.0343 24.25 35.0143 26.04 35.0143 27.2C35.0143 28.38 34.9143 29.12 34.7143 29.42C34.5143 29.74 34.2043 29.9 33.7843 29.9C33.3643 29.9 33.0143 29.72 32.7343 29.36C32.4743 29.02 32.3443 28.52 32.3443 27.86C32.3443 27.2 32.3843 26.41 32.4643 25.49C32.5443 24.59 32.6643 23.4 32.8243 21.92C32.9843 20.42 33.1143 19.07 33.2143 17.87V17.3Z" fill="url(#paint0_linear_1308_238)"/>
<defs>
<linearGradient id="paint0_linear_1308_238" x1="-4" y1="13" x2="52" y2="13" gradientUnits="userSpaceOnUse">
<stop stop-color="#38BDF8"/>
<stop offset="1" stop-color="#60A5FA"/>
</linearGradient>
</defs>
</svg>
