<svg width="14" height="13" viewBox="0 0 14 13" fill="none" xmlns="http://www.w3.org/2000/svg">
<path d="M7.00443 0C3.61776 0 0.871094 2.74667 0.871094 6.13333C0.871094 9.52 3.61776 12.2667 7.00443 12.2667C10.3911 12.2667 13.1378 9.52 13.1378 6.13333C13.1378 2.74667 10.3911 0 7.00443 0ZM7.00443 11.2C4.20443 11.2 1.93776 8.93333 1.93776 6.13333C1.93776 3.33333 4.20443 1.06667 7.00443 1.06667C9.80443 1.06667 12.0711 3.33333 12.0711 6.13333C12.0711 8.93333 9.80443 11.2 7.00443 11.2ZM9.04443 7.41335C9.25777 7.62668 9.25777 7.96001 9.04443 8.17334C8.93777 8.28001 8.80443 8.33333 8.67109 8.33333C8.53776 8.33333 8.40442 8.28001 8.29775 8.17334L6.64443 6.51999C6.53777 6.41332 6.48442 6.28001 6.48442 6.14668V2.97334C6.48442 2.68001 6.72442 2.44001 7.01776 2.44001C7.31109 2.44001 7.55109 2.68001 7.55109 2.97334V5.93333L9.04443 7.41335Z" fill="#8A8F99"/>
</svg>
